<?xml version="1.0" encoding="UTF-8"?>
<svg data-bbox="147.301 28.582 905.273 693.926" height="1050" viewBox="0 0 1200 787.5" width="1600" xmlns="http://www.w3.org/2000/svg" data-type="color">
    <g>
        <defs>
            <clipPath id="7e6787a1-5f9d-420c-a416-773c4607432d">
                <path d="M262 138h790.59v585H262Zm0 0"/>
            </clipPath>
            <clipPath id="f0f57f01-1bd3-48c0-a0d9-cbcafd0bcd1b">
                <path d="M147.3 28.582H339V219.98H147.3Zm0 0"/>
            </clipPath>
        </defs>
        <g clip-path="url(#7e6787a1-5f9d-420c-a416-773c4607432d)">
            <path d="M1049.59 619.8c-85.805-121.912-170.613-244.49-258.074-365.084-51.02-70.235-123.575-108.332-210.371-115.29-186.52-15.238-337.918 141.794-316.715 326.657 20.207 173.266 198.441 292.531 368.062 246.48 47.375-12.921 87.465-38.43 126.887-66.257 17.558-12.59 35.117-24.516 53.34-37.106a4608 4608 0 0 0-43.403-61.62c-14.242-20.208-28.488-40.087-43.066-60.626-30.148 20.871-58.64 42.406-88.457 61.29-52.672 33.128-107.336 34.452-159.352.331-50.687-33.46-71.89-82.16-62.28-142.125 8.944-55.988 53.007-101.375 108.995-114.297 56.32-12.922 114.957 8.282 148.418 55.657 55.989 78.515 111.317 157.695 166.64 236.543 13.583 19.546 30.15 35.78 51.02 48.039 50.356 29.484 119.926 26.504 161.34-6.957-.996-2.32-1.656-3.977-2.984-5.633m0 0" fill="#ffffff" data-color="1"/>
        </g>
        <g clip-path="url(#f0f57f01-1bd3-48c0-a0d9-cbcafd0bcd1b)">
            <path d="M338.703 124.281c0 52.852-42.848 95.7-95.7 95.7-52.855 0-95.702-42.848-95.702-95.7 0-52.851 42.847-95.699 95.703-95.699 52.851 0 95.7 42.848 95.7 95.7m0 0" fill="#ffffff" data-color="1"/>
        </g>
    </g>
</svg>
