<?xml version="1.0" encoding="UTF-8"?>
<svg data-bbox="179.238 103.83 8472.122 1417.284" viewBox="0 0 8906.24 1614.58" height="155" width="854.999" xmlns="http://www.w3.org/2000/svg" shape-rendering="geometricPrecision" text-rendering="geometricPrecision" image-rendering="optimizeQuality" fill-rule="evenodd" clip-rule="evenodd" data-type="shape">
    <g>
        <path d="m1180.72 358.81 11.16 3.19c97.07 29.03 180.31 84.63 250.03 157.77 41.2 44.95 75.09 96.66 109.99 146.52 18.56 26.48 37.68 52.54 56.99 78.51 25.87 34.86 50.69 70.28 75.04 106.24 18.06 26.53 36.57 52.77 55.46 78.74 22.68 31.15 45.07 62.54 67.12 94.16l8.7 12.55 17.17 24.58c33.06 47.31 66.43 94.34 100.31 141.1 7.87 10.92 15.74 21.85 23.66 32.77 4.81 6.71 9.67 13.43 14.54 20.09 6.39 8.84 12.73 17.68 19.03 26.52l10.74 14.91 7.45 12.82v19.67c-10.79 5.61-21.53 11.11-32.31 16.62l-9.12 4.72c-44.95 22.87-90.87 28.1-140.82 27.91-51.48-3.15-103-16.8-147.63-43.1-53.84-37.59-92.59-83.37-128.6-137.49-14.63-21.99-30.09-43.38-45.69-64.72a3493 3493 0 0 1-65.28-92.96 2662 2662 0 0 0-65.41-92.35c-16.76-22.69-33.19-45.56-49.39-68.61l-7.41-10.51c-12.73-18.15-25.46-36.3-38.1-54.54-39.12-56.2-71.57-100.43-105.45-149.33-35.31-51.21-71.22-100.9-104.68-142.9-31.38-41.1-61.07-79.77-89.22-113.02-19.84-23.26-40.31-46.68-60.11-69.91l-8.15-9.52c-29.35-34.32-59.35-69.22-88.58-103.78 508.91 32.13 1071.33 171.22 1255.17 398.73 104.3 149.52 -11.98 349.55 -313.6 489.63z" fill="#0c0c0c" data-color="1"/>
        <g clip-path="url(#550687a3-3702-4e7b-92a1-364126205da9)">
            <path d="m750.64 72.724c-160.79 0 315.11 137.207 315.11 306.598s-257.33 329.306-386.959 329.306c-167.38 0-241.56-98.163-241.56-241.263 0-132.342 98.561-394.641 313.409-394.641z" fill="#0c0c0c" data-color="1"/>
        </g>
    </g>
</svg>